<?xml version="1.0" encoding="UTF-8"?>
<svg id="Layer_2" data-name="Layer 2" xmlns="http://www.w3.org/2000/svg" viewBox="0 0 211.27 243.95">
  <defs>
    <style>
      .cls-1 {
        fill: #511cf7;
      }
    </style>
  </defs>
  <g id="Layer_1-2" data-name="Layer 1">
    <g>
      <polygon class="cls-1" points="123.24 10.16 105.63 0 0 60.99 0 182.96 0 182.96 4.06 185.31 17.61 193.13 17.61 193.13 105.63 243.95 140.84 223.62 140.84 203.29 140.84 101.65 70.42 60.99 52.82 71.15 123.24 111.81 123.24 213.46 105.63 223.62 17.61 172.8 17.61 71.15 105.63 20.33 193.66 71.15 193.66 193.13 211.27 182.96 211.27 60.99 123.24 10.16"/>
      <polygon class="cls-1" points="88.03 50.82 158.45 91.48 158.45 213.46 176.06 203.29 176.06 81.32 105.63 40.66 88.03 50.82"/>
    </g>
  </g>
</svg>