<?xml version="1.0" encoding="UTF-8"?>
<svg id="Layer_2" data-name="Layer 2" xmlns="http://www.w3.org/2000/svg" viewBox="0 0 913.17 243.95">
  <defs>
    <style>
      .cls-1 {
        fill: #1c1c1c;
      }

      .cls-2 {
        fill: #511cf7;
      }
    </style>
  </defs>
  <g id="Layer_1-2" data-name="Layer 1">
    <g>
      <g>
        <polygon class="cls-2" points="123.24 10.16 105.63 0 0 60.99 0 182.96 0 182.96 4.06 185.31 17.61 193.13 17.61 193.13 105.63 243.95 140.84 223.62 140.84 203.29 140.84 101.65 70.42 60.99 52.82 71.15 123.24 111.81 123.24 213.46 105.63 223.62 17.61 172.8 17.61 71.15 105.63 20.33 193.66 71.15 193.66 193.13 211.27 182.96 211.27 60.99 123.24 10.16"/>
        <polygon class="cls-2" points="88.03 50.82 158.45 91.48 158.45 213.46 176.06 203.29 176.06 81.32 105.63 40.66 88.03 50.82"/>
      </g>
      <g>
        <path class="cls-1" d="m405.8,130.31v53.34h-16.96v-51.08c0-16.59-10.93-22.05-20.17-22.05s-19.98,5.47-19.98,22.05v51.08h-16.96v-51.08c0-16.59-10.93-22.05-20.36-22.05s-19.98,5.47-19.98,22.05v51.08h-16.96v-86.7h16.96v10.37c6.22-8.1,15.64-11.69,24.88-11.69,10.93,0,22.24,4.15,28.08,15.27,6.6-11.31,18.47-15.27,29.21-15.27,15.83,0,32.23,8.67,32.23,34.68Z"/>
        <path class="cls-1" d="m505.88,96.95v86.7h-16.96v-13.38c-6.41,9.24-16.4,14.89-29.78,14.89-24.5,0-42.03-19.04-42.03-44.86s17.53-44.67,42.03-44.67c13.38,0,23.37,5.65,29.78,14.7v-13.38h16.96Zm-16.96,43.35c0-16.78-10.93-28.65-27.52-28.65s-27.71,11.87-27.71,28.65,10.93,28.84,27.71,28.84,27.52-12.25,27.52-28.84Z"/>
        <path class="cls-1" d="m568.45,95.63v16.02c-11.69.19-30.53,5.28-30.53,27.52v44.48h-16.96v-86.7h16.96v16.02c6.79-11.87,18.47-17.15,30.53-17.34Z"/>
        <path class="cls-1" d="m581.64,183.65V61.14h17.15l-.19,122.51h-16.96Z"/>
        <path class="cls-1" d="m609.16,140.3c0-26.2,18.28-45.05,44.48-45.05s44.1,18.85,44.1,45.05-18.09,45.05-44.1,45.05-44.48-19.22-44.48-45.05Zm71.81,0c0-16.59-10.93-28.65-27.33-28.65s-27.52,12.06-27.52,28.65,10.93,28.84,27.52,28.84,27.33-12.44,27.33-28.84Z"/>
        <path class="cls-1" d="m829.49,96.95l-28.84,86.7h-16.77l-20.36-59.94-20.54,59.94h-16.77l-28.46-86.7h17.72l20.17,62.76,21.86-62.76h12.44l21.49,62.76,20.36-62.76h17.72Z"/>
        <path class="cls-1" d="m913.17,140.3v4.9h-68.23c1.7,15.46,12.63,25.44,27.71,25.44,12.44,0,20.36-5.65,24.5-11.69l11.87,8.48c-7.54,10.93-20.54,17.91-36.38,17.91-26.39,0-44.1-19.22-44.1-45.05s16.96-44.86,42.97-44.86,41.65,19.04,41.65,44.86Zm-68.23-6.22h52.4c-2.07-14.51-11.31-25.07-25.82-25.07s-24.5,9.99-26.58,25.07Z"/>
      </g>
    </g>
  </g>
</svg>